grf
version=1
nRows=12
nColumns=37
inDegrees=no
endheader
time	ground_force_1_vx	ground_force_1_vy	ground_force_1_vz	ground_force_1_px	ground_force_1_py	ground_force_1_pz	ground_moment_1_mx	ground_moment_1_my	ground_moment_1_mz	ground_force_2_vx	ground_force_2_vy	ground_force_2_vz	ground_force_2_px	ground_force_2_py	ground_force_2_pz	ground_moment_2_mx	ground_moment_2_my	ground_moment_2_mz	ground_force_3_vx	ground_force_3_vy	ground_force_3_vz	ground_force_3_px	ground_force_3_py	ground_force_3_pz	ground_moment_3_mx	ground_moment_3_my	ground_moment_3_mz	ground_force_4_vx	ground_force_4_vy	ground_force_4_vz	ground_force_4_px	ground_force_4_py	ground_force_4_pz	ground_moment_4_mx	ground_moment_4_my	ground_moment_4_mz
      7.86000000	      0.00000000	     -0.00000000	      0.00000000	      0.00000000	      0.00000000	      0.00000000	      0.00000000	      0.00000000	      0.00000000	     62.70451355	    150.97642517	   -655.62664795	   -306.41136824	  -1228.99724422	      0.00000000	      0.00000000	     -0.00000000	   -188.63960556	     25.65311334	   -142.07831035	   -631.51342773	   -305.56854459	   -513.52048427	      0.00000000	     -0.00000000	     -0.00000000	  -9018.67491398	      0.00000000	     -0.00000000	      0.00000000	      0.00000000	      0.00000000	      0.00000000	      0.00000000	      0.00000000	      0.00000000
      7.87000000	      0.00000000	     -0.00000000	      0.00000000	      0.00000000	      0.00000000	      0.00000000	      0.00000000	      0.00000000	      0.00000000	     63.26124573	    152.08772278	   -658.43280029	   -307.03539446	  -1228.55649434	      0.00000000	      0.00000000	     -0.00000000	   -318.38277253	     31.13747319	   -140.89927946	   -649.64831543	   -309.46853989	   -515.25938249	      0.00000000	      0.00000000	     -0.00000000	  -9419.14713497	      0.00000000	     -0.00000000	      0.00000000	      0.00000000	      0.00000000	      0.00000000	      0.00000000	      0.00000000	      0.00000000
      7.88000000	      0.00000000	     -0.00000000	      0.00000000	      0.00000000	      0.00000000	      0.00000000	      0.00000000	      0.00000000	      0.00000000	     60.97342682	    152.78894043	   -660.92254639	   -306.71617958	  -1229.53667271	      0.00000000	      0.00000000	     -0.00000000	   -506.20713102	     28.80002488	   -142.99280037	   -638.64276123	   -309.65186768	   -514.96130903	      0.00000000	      0.00000000	     -0.00000000	  -9109.28685753	      0.00000000	     -0.00000000	      0.00000000	      0.00000000	      0.00000000	      0.00000000	      0.00000000	      0.00000000	      0.00000000
      7.89000000	      0.00000000	     -0.00000000	      0.00000000	      0.00000000	      0.00000000	      0.00000000	      0.00000000	      0.00000000	      0.00000000	     56.50101089	    153.28892517	   -657.17034912	   -305.57906857	  -1228.97374125	      0.00000000	      0.00000000	     -0.00000000	   -736.96094487	     24.88503534	   -143.81492832	   -625.43811035	   -309.23301853	   -512.91635880	      0.00000000	      0.00000000	     -0.00000000	  -8647.77317524	      0.00000000	     -0.00000000	      0.00000000	      0.00000000	      0.00000000	      0.00000000	      0.00000000	      0.00000000	      0.00000000
      7.90000000	      0.00000000	     -0.00000000	      0.00000000	      0.00000000	      0.00000000	      0.00000000	      0.00000000	      0.00000000	      0.00000000	     53.62844467	    151.89344788	   -654.84680176	   -305.38792750	  -1229.85169797	      0.00000000	      0.00000000	      0.00000000	   -528.48129033	     28.04781659	   -138.26629884	   -626.31811523	   -309.84037350	   -513.91633184	      0.00000000	     -0.00000000	     -0.00000000	  -8963.14493083	      0.00000000	     -0.00000000	      0.00000000	      0.00000000	      0.00000000	      0.00000000	      0.00000000	      0.00000000	      0.00000000
      7.91000000	      0.00000000	     -0.00000000	      0.00000000	      0.00000000	      0.00000000	      0.00000000	      0.00000000	      0.00000000	      0.00000000	     50.03194427	    148.48954773	   -650.79064941	   -304.33401341	  -1230.35200666	      0.00000000	      0.00000000	     -0.00000000	   -449.21309036	     34.27458930	   -133.58555903	   -631.85327148	   -311.58690336	   -514.39807153	      0.00000000	      0.00000000	     -0.00000000	  -9395.72740878	      0.00000000	     -0.00000000	      0.00000000	      0.00000000	      0.00000000	      0.00000000	      0.00000000	      0.00000000	      0.00000000
      7.92000000	      0.00000000	     -0.00000000	      0.00000000	      0.00000000	      0.00000000	      0.00000000	      0.00000000	      0.00000000	      0.00000000	     49.37850189	    144.07783508	   -645.96997070	   -303.59638315	  -1230.18413330	      0.00000000	      0.00000000	      0.00000000	      4.15222199	     40.52582538	   -132.24742481	   -641.91278076	   -313.38281559	   -515.77068940	      0.00000000	      0.00000000	     -0.00000000	  -9512.57419670	      0.00000000	     -0.00000000	      0.00000000	      0.00000000	      0.00000000	      0.00000000	      0.00000000	      0.00000000	      0.00000000
      7.93000000	      0.00000000	     -0.00000000	      0.00000000	      0.00000000	      0.00000000	      0.00000000	      0.00000000	      0.00000000	      0.00000000	     44.12942505	    139.16218567	   -638.78460693	   -301.90044169	  -1231.86446591	      0.00000000	      0.00000000	      0.00000000	    199.46503489	     43.39399715	   -131.40788648	   -644.47546387	   -314.09050863	   -515.47393846	      0.00000000	      0.00000000	     -0.00000000	  -9599.79694776	      0.00000000	     -0.00000000	      0.00000000	      0.00000000	      0.00000000	      0.00000000	      0.00000000	      0.00000000	      0.00000000
      7.94000000	      0.00000000	     -0.00000000	      0.00000000	      0.00000000	      0.00000000	      0.00000000	      0.00000000	      0.00000000	      0.00000000	     38.40543365	    134.88381958	   -630.48461914	   -300.22739693	  -1230.75028819	      0.00000000	      0.00000000	      0.00000000	    489.20502324	     38.88509399	   -127.50718266	   -634.35046387	   -312.74090952	   -515.31847968	      0.00000000	      0.00000000	     -0.00000000	  -9820.15189829	      0.00000000	     -0.00000000	      0.00000000	      0.00000000	      0.00000000	      0.00000000	      0.00000000	      0.00000000	      0.00000000
      7.95000000	      0.00000000	     -0.00000000	      0.00000000	      0.00000000	      0.00000000	      0.00000000	      0.00000000	      0.00000000	      0.00000000	     34.56969070	    130.47225952	   -624.71722412	   -298.85302442	  -1231.96325535	      0.00000000	      0.00000000	      0.00000000	    714.72622885	     29.65958289	   -122.32647201	   -619.10339355	   -310.40855028	   -514.11703452	      0.00000000	      0.00000000	     -0.00000000	 -10170.93989493	      0.00000000	     -0.00000000	      0.00000000	      0.00000000	      0.00000000	      0.00000000	      0.00000000	      0.00000000	      0.00000000
      7.96000000	      0.00000000	     -0.00000000	      0.00000000	      0.00000000	      0.00000000	      0.00000000	      0.00000000	      0.00000000	      0.00000000	     31.14703178	    126.07397461	   -620.12640381	   -297.46514063	  -1231.39055246	      0.00000000	      0.00000000	      0.00000000	    858.54155763	     22.75513757	   -118.58713730	   -607.98712158	   -308.77712648	   -513.94019636	      0.00000000	      0.00000000	     -0.00000000	 -10464.57373195	      0.00000000	     -0.00000000	      0.00000000	      0.00000000	      0.00000000	      0.00000000	      0.00000000	      0.00000000	      0.00000000
      7.97000000	      0.00000000	     -0.00000000	      0.00000000	      0.00000000	      0.00000000	      0.00000000	      0.00000000	      0.00000000	      0.00000000	     29.64668465	    123.22419739	   -623.76153564	   -296.34061518	  -1231.00076636	      0.00000000	      0.00000000	      0.00000000	   1069.36622772	     19.17839542	   -118.26274277	   -603.51348877	   -307.53135830	   -513.96138432	      0.00000000	      0.00000000	     -0.00000000	 -10325.83334883	      0.00000000	     -0.00000000	      0.00000000	      0.00000000	      0.00000000	      0.00000000	      0.00000000	      0.00000000	      0.00000000
